mtllib materials.mtl
v -0.1603521 0.12 0
v -0.1442752 0.12 0.06
v -0.1442752 -0.12 0.06
v -0.1603521 -0.12 0
v -0.1003522 0.12 0.1039231
v -0.1003522 -0.12 0.1039231
v -0.04035215 0.12 0.12
v -0.04035215 -0.12 0.12
v 0.01964787 0.12 0.1039231
v 0.01964787 -0.12 0.1039231
v 0.06357092 0.12 0.06
v 0.06357092 -0.12 0.06
v 0.07964787 0.12 0
v 0.07964793 0.09000003 0
v 0.0796479 0.06000006 0
v 0.0796479 0 0
v 0.0796479 -0.06000006 0
v 0.07964793 -0.09000003 0
v 0.07964787 -0.12 0
v 0.06357092 0.12 -0.06
v 0.06357095 0.09000003 -0.06
v 0.01964787 0.12 -0.1039231
v 0.01964787 -0.12 -0.1039231
v 0.06357092 -0.12 -0.06
v 0.06357095 -0.09000003 -0.06
v 0.06357095 -0.06000006 -0.06
v 0.06357095 0 -0.06
v 0.06357095 0.06000006 -0.06
v -0.04035212 0.12 -0.12
v -0.04035212 -0.12 -0.12
v -0.1003521 0.12 -0.1039231
v -0.1003521 -0.12 -0.1039231
v -0.1442752 0.12 -0.06
v -0.1442752 -0.12 -0.06
v -0.09327756 0.05999994 -0.09166968
v -0.1320217 0.05999994 -0.05292559
v 0.1423162 -0.08484161 -0.07468301
v 0.1423162 -0.06515861 -0.07468301
v 0.1141937 0.06257939 -0.07267642
v 0.1553643 0.08484149 -0.0359869
v 0.1553643 0.06515872 -0.0359869
v 0.1275062 0.06257939 -0.02299345
v 0.1448162 0.08484149 -0.07535291
v 0.1448162 0.06515872 -0.07535291
v 0.1528643 -0.08484161 -0.035317
v 0.1262563 -0.06257927 -0.02265853
v 0.1528643 -0.06515861 -0.03531706
v 0.1603522 0.004555106 -0.03732359
v 0.1314477 -0.002197862 -0.02404982
v 0.1498041 0.004555106 -0.0766896
v 0.1181352 -0.002197862 -0.07373279
v 0.1229438 -0.06257927 -0.0723415
v -0.04035214 0.05999994 -0.1058511
v 0.0125733 0.05999994 -0.09166968
v 0.05131739 0.05999994 -0.05292559
v 0.06549871 0.05999994 -1.788139E-07
v 0.05131739 0.05999994 0.05292523
v 0.0125733 0.05999994 0.09166932
v -0.04035215 0.05999994 0.1058506
v -0.0932776 0.05999994 0.09166932
v -0.1320217 0.05999994 0.05292523
v -0.146203 0.05999994 -1.788139E-07
vn -0.9659259 -4.10775E-10 0.258819
vn -0.7071069 1.994483E-09 0.7071066
vn -0.2588191 -9.90075E-09 0.9659259
vn 0.258819 1.148733E-08 0.9659259
vn 0.7071067 3.022869E-09 0.7071069
vn 0.9659257 -9.781224E-11 0.2588195
vn 0.9659258 1.332426E-06 -0.2588193
vn 0.7071066 -6.04032E-09 -0.7071071
vn 0.2588191 -7.95448E-10 -0.9659259
vn -0.2588189 8.946359E-09 -0.9659259
vn -0.7071068 -3.003257E-09 -0.7071069
vn -0.9659258 -9.405869E-10 -0.258819
vn 0.689447 0.2220928 0.6894474
vn 2.042012E-08 -1 2.434267E-15
vn 0.9659258 3.168756E-09 -0.258819
vn 0.9659258 3.168756E-09 -0.258819
vn -0.1833028 -5.002804E-08 -0.9830565
vn 0.9659258 -1.332426E-06 -0.2588193
vn -0.2429096 8.610454E-08 -0.9700489
vn 0.04769003 -0.9987804 -0.0127785
vn 0.4295091 -0.004431224 0.9030517
vn 0.06031542 0.9980485 -0.01616152
vn 0.9659257 2.993165E-08 -0.2588195
vn 0.06226074 -0.9979205 -0.01668277
vn 0.4346394 0.003152004 0.9005991
vn 0.0488975 0.9987179 -0.01310204
vn 0.9659257 -4.005356E-07 -0.2588197
vn 0.4182492 0.01245172 0.908247
vn -0.08890343 -0.01911508 -0.9958569
vn 0.9600086 -0.1105169 -0.2572345
vn 0.424266 -0.01770331 0.9053646
vn -0.9621221 0.08866104 0.257799
vn -0.2033694 0.9775845 0.05449259
vn 0.9624384 0.08489918 -0.2578849
vn -0.09516422 0.01044243 -0.9954068
vn -0.964015 -0.06287034 0.2583067
vn 0.2033692 -0.9775845 -0.0544926
vn 0.9600087 -0.1105168 -0.2572342
vn -0.2033691 0.9775846 0.05449269
vn -0.1856836 2.085854E-07 -0.9826096
vn -0.1052222 0.2506319 -0.9623471
vn -0.08828982 0.01470127 -0.9959863
vn 0.0476901 -0.9987804 -0.01277848
vn -0.9640152 -0.06287034 0.2583063
vn -0.1766374 -0.6852493 -0.7065639
vn 0.2523556 0.2220918 0.9418024
vn -0.2523557 0.2220919 0.9418025
vn -0.6894473 0.2220928 0.689447
vn -0.941802 0.2220941 0.2523551
vn -0.9418017 0.2220957 -0.252355
vn -0.6894467 0.2220968 -0.6894464
vn -0.2523542 0.222098 -0.9418014
vn 0.2523544 0.222098 -0.9418013
vn 0.6894467 0.2220965 -0.6894465
vn 0.9418019 0.2220951 -0.2523551
vn 0.9418022 0.2220938 0.2523552
vn 2.109049E-08 1 2.514182E-15
vn 0.04280766 0.9990793 -0.002854127
vn -0.9947689 -0.07769086 0.06632454
vn -0.1242256 -0.03274352 -0.9917136
vt -0.1038162 0.1363515
vt -0.1099377 0.1352967
vt -0.1058623 0.1116452
vt -0.09974088 0.1127
vt 0.05118029 0.1588969
vt 0.04658414 0.1630754
vt 0.03043954 0.1453172
vt 0.0350357 0.1411387
vt 0.1122654 0.1098419
vt 0.1091795 0.1152329
vt 0.08835058 0.10331
vt 0.09143643 0.0979191
vt 0.1380056 0.06371995
vt 0.1353523 0.06933638
vt 0.113652 0.05908458
vt 0.1163054 0.05346814
vt 0.1545324 0.03236286
vt 0.1516622 0.03787164
vt 0.1303779 0.02678198
vt 0.1332481 0.02127321
vt 0.1639241 0.04036609
vt 0.1599623 0.04515031
vt 0.1576517 0.0432369
vt 0.1553411 0.0413235
vt 0.1507199 0.03749669
vt 0.1460987 0.03366987
vt 0.1437881 0.03175647
vt 0.1414775 0.02984307
vt 0.1454393 0.02505885
vt 0.1099376 0.1352967
vt 0.1038162 0.1363515
vt 0.1033068 0.1333951
vt 0.1094282 0.1323403
vt -0.04658426 0.1630754
vt -0.0511804 0.1588968
vt -0.0350358 0.1411387
vt -0.03043965 0.1453172
vt -0.03245772 0.147537
vt -0.0344758 0.1497567
vt -0.03851195 0.1541963
vt -0.04254811 0.1586358
vt -0.04456618 0.1608556
vt -0.1091795 0.1152329
vt -0.1122654 0.1098419
vt -0.09143643 0.0979191
vt -0.08835057 0.10331
vt -0.1353523 0.06933639
vt -0.1380056 0.06371995
vt -0.1163054 0.05346815
vt -0.113652 0.05908458
vt -0.1516622 0.03787163
vt -0.1545324 0.03236285
vt -0.1332481 0.0212732
vt -0.1303779 0.02678197
vt -0.1599623 0.04515036
vt -0.1639241 0.04036614
vt -0.1454393 0.02505889
vt -0.1414775 0.0298431
vt 0.1409555 0.01074043
vt 0.1386346 0.01650221
vt 0.1330634 0.01386328
vt 0.1351106 0.008780867
vt 0.07809731 -0.01621141
vt 0.08428849 -0.0167154
vt 0.0899022 -0.01405627
vt 0.09343425 -0.008946547
vt 0.09393824 -0.002755368
vt 0.0912791 0.002858343
vt 0.08616938 0.006390395
vt 0.07997821 0.00689438
vt 0.0743645 0.004235255
vt 0.07083245 -0.0008744701
vt 0.07032846 -0.007065647
vt 0.07298759 -0.01267936
vt 0.1017785 0.1245258
vt 0.1007597 0.1186129
vt 0.1068811 0.1175581
vt 0.1079 0.123471
vt 0.1027974 0.1304387
vt 0.1017785 0.1245258
vt 0.1079 0.123471
vt 0.1089188 0.1293839
vt -0.1125819 0.07522921
vt -0.109874 0.07393792
vt -0.1068918 0.08139021
vt -0.1086685 0.08223742
vt 0.1002502 0.1156566
vt 0.09974074 0.1127002
vt 0.1058622 0.1116454
vt 0.1063716 0.1146018
vt -0.1284164 0.07697484
vt -0.1257047 0.07569182
vt -0.123706 0.08051937
vt 0.08053701 0.01420363
vt 0.08672906 0.01371048
vt 0.08103727 0.01940458
vt 0.1332835 0.06056746
vt 0.1359946 0.06185179
vt 0.1319394 0.06920718
vt 0.1301606 0.06836454
vt 0.1312434 0.06547616
vt -0.08540446 -0.003133173
vt -0.07921463 -0.002612938
vt -0.08052415 0.005567303
vt -0.08458529 0.005225978
vt 0.1038299 0.1327816
vt 0.1034957 0.1308419
vt 0.107512 0.1301498
vt 0.1078462 0.1320895
vt 0.08062674 0.01546268
vt 0.08681902 0.01497251
vt 0.08593889 0.02307009
vt 0.08187613 0.02339169
vt 0.1193686 0.05337274
vt 0.1220803 0.05465596
vt 0.1196305 0.05923004
vt 0.1181369 0.06178305
vt 0.1163578 0.06094112
vt -0.08561662 -0.0005666598
vt -0.0794265 -4.973668E-05
vt -0.08506168 0.004592418
vt 0.1012828 0.1179994
vt 0.1009485 0.1160597
vt 0.1049648 0.1153677
vt 0.105299 0.1173074
vt 0.1295741 0.06558865
vt 0.1284965 0.06847899
vt 0.1227974 0.06635414
vt 0.1235433 0.06318933
vt -0.1031749 0.08940531
vt -0.1090962 0.09316559
vt -0.1098926 0.09001308
vt 0.09776603 0.1226286
vt 0.101802 0.1220622
vt 0.09874083 0.1295749
vt 0.1192509 0.06357233
vt 0.1207476 0.06102114
vt 0.1259763 0.06408852
vt 0.1252229 0.06725156
vt -0.1029294 0.1212894
vt -0.09871263 0.1280291
vt -0.1038025 0.1272881
vt -0.08263238 0.04188237
vt -0.08340663 0.0450404
vt -0.08776131 0.04149473
vt 0.1118032 0.1237372
vt 0.1078155 0.1245786
vt 0.1065599 0.1186273
vt 0.1105476 0.1177859
vt -0.1187171 0.09227417
vt -0.1127088 0.08981891
vt -0.1119335 0.09297668
vt -0.1060044 0.1265282
vt -0.1097807 0.1191578
vt -0.1047362 0.1201628
vt 0.0877613 0.0414947
vt 0.08747049 0.04473322
vt 0.08340661 0.04504037
vt 0.08263236 0.04188234
vt 0.101802 0.1220621
vt 0.1027768 0.1290084
vt 0.09874092 0.1295748
vt -0.0834066 0.04504035
vt -0.08747048 0.0447332
vt -0.08776128 0.04149467
vt -0.1204145 0.08789124
vt -0.1221913 0.08873817
vt -0.1262147 0.08149642
vt -0.1370551 0.08891057
vt -0.1361387 0.09185604
vt -0.1416335 0.08519697
vt -0.112013 0.09354414
vt -0.1176926 0.09572074
vt -0.1187965 0.09284028
vt 0.08672906 0.01371049
vt 0.0861646 0.01899623
vt 0.08103727 0.01940459
vt -0.1060045 0.1265282
vt -0.1110489 0.1255232
vt -0.1097808 0.1191577
vt -0.03093634 0.03728183
vt -0.03200135 0.03562653
vt -0.034637 0.03015897
vt 0.1200968 0.05600992
vt 0.1174147 0.06161269
vt 0.1120223 0.05862531
vt 0.1143882 0.05368316
vt 0.0871804 0.1105923
vt 0.08357882 0.1156532
vt 0.07877742 0.1117869
vt 0.08195435 0.1073227
vt 0.01937729 0.1566765
vt 0.01416628 0.1600574
vt 0.01112422 0.1546957
vt 0.0157208 0.1517135
vt -0.09649633 0.1407363
vt -0.1026643 0.1400009
vt -0.1015721 0.1339339
vt -0.09613138 0.1345826
vt -0.1566062 0.0753533
vt -0.1612556 0.07123411
vt -0.1569008 0.06687095
vt -0.1527996 0.07050445
vt -0.1612678 0.05608519
vt -0.164515 0.05078986
vt -0.1590776 0.04788517
vt -0.1562133 0.05255613
vt -0.1526135 0.07287063
vt -0.1551273 0.06719036
vt -0.1493519 0.0650349
vt -0.1471345 0.07004542
vt -0.1370903 0.1048392
vt -0.1394201 0.09908103
vt -0.1335782 0.09711249
vt -0.1315232 0.1021917
vt -0.09773849 0.1468683
vt -0.1009484 0.1415503
vt -0.09549084 0.1386838
vt -0.09265938 0.1433747
vt 0.1293626 0.1147541
vt 0.1234838 0.1167603
vt 0.1218429 0.1108181
vt 0.1270285 0.1090485
vt 0.1592 -0.004290759
vt 0.1564843 0.001295785
vt 0.15111 -0.001723946
vt 0.1535055 -0.006651781
vt -0.07406594 -0.01176334
vt -0.07172035 -0.006811538
vt -0.07216491 -0.001350358
vt -0.0752805 0.003156882
vt -0.0802323 0.005502471
vt -0.08569348 0.00505791
vt -0.09020071 0.001942322
vt -0.09254631 -0.003009476
vt -0.09210174 -0.008470655
vt -0.08898615 -0.0129779
vt -0.08403435 -0.01532349
vt -0.07857318 -0.01487893
vt -0.07840843 0.0008778806
vt -0.07927992 0.006884666
vt -0.08406212 0.005497484
vt -0.1394588 0.06242048
vt -0.1353633 0.06525254
vt -0.1386675 0.07033113
vt -0.1102245 0.08694087
vt -0.1045959 0.08469851
vt -0.1035064 0.0863378
o group377419114
g mesh377419114
usemtl mat3
f 4/4/1 3/3/1 2/2/1 1/1/1
f 3/8/2 6/7/2 5/6/2 2/5/2
f 6/12/3 8/11/3 7/10/3 5/9/3
f 8/16/4 10/15/4 9/14/4 7/13/4
f 10/20/5 12/19/5 11/18/5 9/17/5
f 12/29/6 19/28/6 18/27/6 17/26/6 16/25/6 15/24/6 14/23/6 13/22/6 11/21/6
f 14/33/7 21/32/7 20/31/7 13/30/7
f 21/42/8 28/41/8 27/40/8 26/39/8 25/38/8 24/37/8 23/36/8 22/35/8 20/34/8
f 23/46/9 30/45/9 29/44/9 22/43/9
f 30/50/10 32/49/10 31/48/10 29/47/10
f 32/54/11 34/53/11 33/52/11 31/51/11
f 34/58/12 4/57/12 1/56/12 33/55/12
f 36/62/13 35/61/13 31/60/13 33/59/13
f 34/74/14 32/73/14 30/72/14 23/71/14 24/70/14 19/69/14 12/68/14 10/67/14 8/66/14 6/65/14 3/64/14 4/63/14
f 16/78/15 17/77/15 26/76/15 27/75/15
f 15/82/16 16/81/16 27/80/16 28/79/16
f 38/86/17 37/85/17 25/84/17 26/83/17
f 18/90/18 19/89/18 24/88/18 25/87/18
f 39/93/19 28/92/19 21/91/19
f 39/96/20 15/95/20 28/94/20
f 42/101/21 41/100/21 40/99/21 14/98/21 15/97/21
f 40/105/22 43/104/22 21/103/22 14/102/22
f 40/109/23 41/108/23 44/107/23 43/106/23
f 37/113/24 45/112/24 18/111/24 25/110/24
f 45/118/25 47/117/25 46/116/25 17/115/25 18/114/25
f 46/121/26 26/120/26 17/119/26
f 47/125/27 45/124/27 37/123/27 38/122/27
f 49/129/28 48/128/28 41/127/28 42/126/28
f 51/132/29 50/131/29 38/130/29
f 50/135/30 47/134/30 38/133/30
f 48/139/31 49/138/31 46/137/31 47/136/31
f 49/142/32 51/141/32 46/140/32
f 49/145/33 50/144/33 51/143/33
f 48/149/34 50/148/34 44/147/34 41/146/34
f 50/152/35 51/151/35 39/150/35
f 51/155/36 49/154/36 39/153/36
f 51/159/37 50/158/37 48/157/37 49/156/37
f 50/162/38 48/161/38 47/160/38
f 49/165/39 48/164/39 50/163/39
f 21/168/40 43/167/40 44/166/40
f 21/171/41 44/170/41 39/169/41
f 39/174/42 44/173/42 50/172/42
f 39/177/43 42/176/43 15/175/43
f 49/180/44 42/179/44 39/178/44
f 26/183/45 52/182/45 38/181/45
f 35/187/46 53/186/46 29/185/46 31/184/46
f 53/191/47 54/190/47 22/189/47 29/188/47
f 54/195/48 55/194/48 20/193/48 22/192/48
f 55/199/49 56/198/49 13/197/49 20/196/49
f 56/203/50 57/202/50 11/201/50 13/200/50
f 57/207/51 58/206/51 9/205/51 11/204/51
f 58/211/52 59/210/52 7/209/52 9/208/52
f 59/215/53 60/214/53 5/213/53 7/212/53
f 60/219/54 61/218/54 2/217/54 5/216/54
f 61/223/55 62/222/55 1/221/55 2/220/55
f 62/227/56 36/226/56 33/225/56 1/224/56
f 46/242/58 52/241/58 26/240/58
f 51/245/59 52/244/59 46/243/59
f 38/248/60 52/247/60 51/246/60
usemtl mat20
f 62/239/57 61/238/57 60/237/57 59/236/57 58/235/57 57/234/57 56/233/57 55/232/57 54/231/57 53/230/57 35/229/57 36/228/57
