# Blender v2.78 (sub 0) OBJ File: 'Low_poly_check_mark.blend'
# www.blender.org
mtllib Low_poly_check_mark.mtl
o Low_poly_button_X_Куб.001
v 7.532964 3.109182 -1.552802
v 7.532964 3.109182 -0.096538
v 8.139536 3.049440 -1.552802
v 8.139536 3.049440 -0.096538
v 8.722797 2.872510 -1.552802
v 8.722796 2.872510 -0.096538
v 9.260334 2.585190 -1.552802
v 9.260333 2.585190 -0.096538
v 9.731488 2.198524 -1.552802
v 9.731488 2.198524 -0.096538
v 10.118155 1.727369 -1.552802
v 10.118155 1.727369 -0.096538
v 10.405474 1.189833 -1.552803
v 10.405474 1.189833 -0.096538
v 10.582404 0.606572 -1.552803
v 10.582404 0.606572 -0.096538
v 10.642147 0.000001 -1.552803
v 10.642146 0.000000 -0.096538
v 10.582405 -0.606571 -1.552803
v 10.582405 -0.606571 -0.096538
v 10.405474 -1.189832 -1.552803
v 10.405474 -1.189832 -0.096538
v 10.118155 -1.727369 -1.552803
v 10.118155 -1.727369 -0.096538
v 9.731488 -2.198524 -1.552803
v 9.731488 -2.198524 -0.096538
v 9.260334 -2.585191 -1.552803
v 9.260334 -2.585190 -0.096538
v 8.722797 -2.872510 -1.552803
v 8.722796 -2.872510 -0.096538
v 8.139536 -3.049440 -1.552803
v 8.139535 -3.049440 -0.096538
v 7.532964 -3.109182 -1.552803
v 7.532964 -3.109182 -0.096538
v 6.926392 -3.049440 -1.552803
v 6.926392 -3.049440 -0.096538
v 6.343131 -2.872509 -1.552803
v 6.343131 -2.872509 -0.096538
v 5.805594 -2.585190 -1.552803
v 5.805594 -2.585190 -0.096538
v 5.334439 -2.198523 -1.552803
v 5.334439 -2.198523 -0.096538
v 4.947773 -1.727367 -1.552803
v 4.947773 -1.727367 -0.096538
v 4.660453 -1.189830 -1.552802
v 4.660453 -1.189830 -0.096538
v 4.483524 -0.606569 -1.552802
v 4.483523 -0.606569 -0.096538
v 4.423782 0.000003 -1.552802
v 4.423782 0.000003 -0.096538
v 4.483525 0.606574 -1.552802
v 4.483524 0.606574 -0.096538
v 4.660456 1.189835 -1.552802
v 4.660456 1.189835 -0.096538
v 4.947776 1.727372 -1.552802
v 4.947776 1.727372 -0.096538
v 5.334443 2.198526 -1.552803
v 5.334443 2.198526 -0.096538
v 5.805598 2.585193 -1.552802
v 5.805598 2.585193 -0.096538
v 6.343136 2.872512 -1.552802
v 6.343136 2.872511 -0.096538
v 6.926397 3.049441 -1.552802
v 6.926397 3.049441 -0.096538
v 7.532964 3.141838 -1.595308
v 8.145906 3.081468 -1.595308
v 8.735293 2.902679 -1.595308
v 9.278476 2.612343 -1.595308
v 9.754579 2.221615 -1.595308
v 10.145308 1.745512 -1.595308
v 10.435644 1.202330 -1.595308
v 10.614432 0.612943 -1.595308
v 10.674802 0.000001 -1.595308
v 10.614432 -0.612941 -1.595308
v 10.435644 -1.202329 -1.595309
v 10.145308 -1.745511 -1.595309
v 9.754580 -2.221614 -1.595308
v 9.278476 -2.612342 -1.595308
v 8.735293 -2.902679 -1.595308
v 8.145906 -3.081468 -1.595309
v 7.532964 -3.141838 -1.595308
v 6.920021 -3.081468 -1.595309
v 6.330634 -2.902679 -1.595309
v 5.787452 -2.612341 -1.595309
v 5.311348 -2.221613 -1.595309
v 4.920621 -1.745510 -1.595309
v 4.630284 -1.202327 -1.595308
v 4.451496 -0.612940 -1.595308
v 4.391127 0.000003 -1.595308
v 4.451497 0.612945 -1.595308
v 4.630286 1.202332 -1.595308
v 4.920624 1.745514 -1.595308
v 5.311352 2.221617 -1.595308
v 5.787456 2.612345 -1.595308
v 6.330639 2.902681 -1.595308
v 6.920027 3.081469 -1.595308
v 7.532964 3.201600 -1.893834
v 8.157565 3.140082 -1.893834
v 8.758163 2.957892 -1.893834
v 9.311678 2.662033 -1.893834
v 9.796837 2.263873 -1.893834
v 10.194998 1.778714 -1.893834
v 10.490856 1.225200 -1.893834
v 10.673046 0.624601 -1.893834
v 10.734564 0.000000 -1.893834
v 10.673046 -0.624601 -1.893834
v 10.490857 -1.225198 -1.893834
v 10.194998 -1.778713 -1.893834
v 9.796837 -2.263873 -1.893834
v 9.311678 -2.662033 -1.893834
v 8.758163 -2.957893 -1.893834
v 8.157565 -3.140082 -1.893834
v 7.532963 -3.201600 -1.893834
v 6.908362 -3.140082 -1.893834
v 6.307764 -2.957892 -1.893834
v 5.754250 -2.662032 -1.893834
v 5.269090 -2.263872 -1.893834
v 4.870930 -1.778712 -1.893834
v 4.575070 -1.225197 -1.893834
v 4.392882 -0.624598 -1.893834
v 4.331364 0.000003 -1.893834
v 4.392883 0.624604 -1.893834
v 4.575073 1.225203 -1.893834
v 4.870933 1.778717 -1.893834
v 5.269094 2.263876 -1.893834
v 5.754254 2.662035 -1.893834
v 6.307769 2.957894 -1.893834
v 6.908368 3.140082 -1.893834
v 7.342075 -0.878203 0.642203
v 5.445200 1.297164 0.642203
v 7.342075 -0.878203 -0.642203
v 5.445200 1.297164 -0.642203
v 7.769874 0.097353 0.642203
v 5.896231 2.246078 0.642203
v 7.769874 0.097354 -0.642203
v 5.896231 2.246078 -0.642203
v 6.714187 -0.158130 0.642203
v 6.714187 -0.158130 -0.642203
v 7.162419 0.793993 -0.642203
v 7.162418 0.793993 0.642203
v 9.162022 3.311388 0.642204
v 9.162022 3.311388 -0.642202
v 8.491781 3.894500 -0.642202
v 8.491781 3.894500 0.642204
v 8.936217 -2.706392 0.642203
v 8.936217 -2.706392 -0.642203
v 9.380919 -1.750221 0.642203
v 9.380919 -1.750221 -0.642203
v 6.297991 -3.309892 0.642203
v 6.297992 -3.309892 -0.642203
v 5.611757 -2.661852 0.642203
v 5.611757 -2.661852 -0.642203
vn -0.7537 -0.6572 -0.0000
vn 0.0000 0.0000 -1.0000
vn 0.7537 0.6572 0.0000
vn -0.0000 -0.0000 1.0000
vn -0.9032 0.4293 0.0000
vn 0.6564 0.7544 0.0000
vn -0.9191 0.3941 -0.0000
vn 0.9176 -0.3975 -0.0000
vn 0.9067 -0.4217 -0.0000
vn -0.6866 -0.7271 -0.0000
vn -0.9152 0.4030 0.0000
vn 0.9189 -0.3945 0.0000
vn 0.2306 0.7602 0.6074
vn 0.0961 -0.9760 0.1954
vn 0.7006 -0.3745 0.6074
vn -0.5040 -0.6141 0.6074
vn -0.5040 0.6141 0.6074
vn 0.7602 0.2306 0.6074
vn 0.0779 -0.7906 0.6074
vn -0.7906 0.0779 0.6074
vn 0.3745 0.7006 0.6074
vn 0.6141 -0.5040 0.6074
vn -0.6141 -0.5040 0.6074
vn -0.3745 0.7006 0.6074
vn 0.7906 0.0779 0.6074
vn -0.0779 -0.7906 0.6074
vn -0.7602 0.2306 0.6074
vn 0.5040 0.6141 0.6074
vn 0.5040 -0.6141 0.6074
vn -0.7006 -0.3745 0.6074
vn -0.2306 0.7602 0.6074
vn 0.7906 -0.0779 0.6074
vn -0.2306 -0.7602 0.6074
vn -0.7006 0.3745 0.6074
vn 0.6141 0.5040 0.6074
vn 0.3745 -0.7006 0.6074
vn -0.7602 -0.2306 0.6074
vn 0.0779 0.7906 0.6074
vn -0.0779 0.7906 0.6074
vn 0.7602 -0.2306 0.6074
vn -0.3745 -0.7006 0.6074
vn -0.6141 0.5040 0.6074
vn 0.7006 0.3745 0.6074
vn 0.2306 -0.7602 0.6074
vn -0.7906 -0.0779 0.6074
vn 0.4623 0.8649 0.1954
vn -0.4623 0.8649 0.1954
vn -0.0961 -0.9760 0.1954
vn 0.6222 0.7581 0.1954
vn -0.2847 0.9385 0.1954
vn -0.2847 -0.9385 0.1954
vn 0.7581 0.6222 0.1954
vn -0.0961 0.9760 0.1954
vn -0.4623 -0.8649 0.1954
vn 0.8649 0.4623 0.1954
vn -0.6222 -0.7581 0.1954
vn 0.9385 0.2847 0.1954
vn -0.7581 -0.6222 0.1954
vn 0.9760 0.0961 0.1954
vn -0.8649 -0.4623 0.1954
vn 0.9760 -0.0961 0.1954
vn -0.9385 -0.2847 0.1954
vn 0.9385 -0.2847 0.1954
vn -0.9760 -0.0961 0.1954
vn 0.8649 -0.4623 0.1954
vn -0.9760 0.0961 0.1954
vn 0.7581 -0.6222 0.1954
vn -0.9385 0.2847 0.1954
vn 0.6222 -0.7581 0.1954
vn -0.8649 0.4623 0.1954
vn 0.4623 -0.8649 0.1954
vn 0.0961 0.9760 0.1954
vn -0.7581 0.6222 0.1954
vn 0.2847 -0.9385 0.1954
vn 0.2847 0.9385 0.1954
vn -0.6222 0.7581 0.1954
vn 0.0980 0.9952 -0.0000
vn 0.2903 0.9569 0.0000
vn 0.4714 0.8819 0.0000
vn 0.6344 0.7730 0.0000
vn 0.7730 0.6344 0.0000
vn 0.8819 0.4714 0.0000
vn 0.9569 0.2903 0.0000
vn 0.9952 0.0980 0.0000
vn 0.9952 -0.0980 0.0000
vn 0.9569 -0.2903 -0.0000
vn 0.8819 -0.4714 0.0000
vn 0.7730 -0.6344 0.0000
vn 0.6344 -0.7730 0.0000
vn 0.4714 -0.8819 0.0000
vn 0.2903 -0.9569 0.0000
vn 0.0980 -0.9952 0.0000
vn -0.0980 -0.9952 -0.0000
vn -0.2903 -0.9569 -0.0000
vn -0.4714 -0.8819 0.0000
vn -0.6344 -0.7730 0.0000
vn -0.7730 -0.6344 0.0000
vn -0.8819 -0.4714 -0.0000
vn -0.9569 -0.2903 -0.0000
vn -0.9952 -0.0980 -0.0000
vn -0.9952 0.0980 -0.0000
vn -0.9569 0.2903 -0.0000
vn -0.8819 0.4714 -0.0000
vn -0.7730 0.6344 -0.0000
vn -0.6344 0.7730 0.0000
vn -0.4714 0.8819 0.0000
vn -0.2903 0.9569 0.0000
vn -0.0980 0.9952 -0.0000
usemtl red
s off
f 137//1 130//1 132//1 138//1
f 138//2 132//2 136//2 139//2
f 139//3 136//3 134//3 140//3
f 140//4 134//4 130//4 137//4
f 135//3 133//3 147//3 148//3
f 136//5 132//5 130//5 134//5
f 133//4 140//4 137//4 129//4
f 135//2 139//2 143//2 142//2
f 131//2 138//2 139//2 135//2
f 138//2 131//2 150//2 152//2
f 142//6 143//6 144//6 141//6
f 139//7 140//7 144//7 143//7
f 140//4 133//4 141//4 144//4
f 133//8 135//8 142//8 141//8
f 146//9 148//9 147//9 145//9
f 133//4 129//4 145//4 147//4
f 131//2 135//2 148//2 146//2
f 129//1 131//1 146//1 145//1
f 149//10 151//10 152//10 150//10
f 129//4 137//4 151//4 149//4
f 137//11 138//11 152//11 151//11
f 131//12 129//12 149//12 150//12
usemtl SERIY
f 3//13 5//13 67//13 66//13
f 80//14 81//14 113//14 112//14
f 21//15 23//15 76//15 75//15
f 39//16 41//16 85//16 84//16
f 57//17 59//17 94//17 93//17
f 13//18 15//18 72//18 71//18
f 31//19 33//19 81//19 80//19
f 49//20 51//20 90//20 89//20
f 5//21 7//21 68//21 67//21
f 23//22 25//22 77//22 76//22
f 41//23 43//23 86//23 85//23
f 59//24 61//24 95//24 94//24
f 15//25 17//25 73//25 72//25
f 33//26 35//26 82//26 81//26
f 51//27 53//27 91//27 90//27
f 7//28 9//28 69//28 68//28
f 25//29 27//29 78//29 77//29
f 43//30 45//30 87//30 86//30
f 61//31 63//31 96//31 95//31
f 17//32 19//32 74//32 73//32
f 35//33 37//33 83//33 82//33
f 53//34 55//34 92//34 91//34
f 9//35 11//35 70//35 69//35
f 27//36 29//36 79//36 78//36
f 45//37 47//37 88//37 87//37
f 1//38 3//38 66//38 65//38
f 63//39 1//39 65//39 96//39
f 19//40 21//40 75//40 74//40
f 37//41 39//41 84//41 83//41
f 55//42 57//42 93//42 92//42
f 11//43 13//43 71//43 70//43
f 29//44 31//44 80//44 79//44
f 47//45 49//45 89//45 88//45
f 97//2 98//2 99//2 100//2 101//2 102//2 103//2 104//2 105//2 106//2 107//2 108//2 109//2 110//2 111//2 112//2 113//2 114//2 115//2 116//2 117//2 118//2 119//2 120//2 121//2 122//2 123//2 124//2 125//2 126//2 127//2 128//2
f 67//46 68//46 100//46 99//46
f 94//47 95//47 127//47 126//47
f 81//48 82//48 114//48 113//48
f 68//49 69//49 101//49 100//49
f 95//50 96//50 128//50 127//50
f 82//51 83//51 115//51 114//51
f 69//52 70//52 102//52 101//52
f 96//53 65//53 97//53 128//53
f 83//54 84//54 116//54 115//54
f 70//55 71//55 103//55 102//55
f 84//56 85//56 117//56 116//56
f 71//57 72//57 104//57 103//57
f 85//58 86//58 118//58 117//58
f 72//59 73//59 105//59 104//59
f 86//60 87//60 119//60 118//60
f 73//61 74//61 106//61 105//61
f 87//62 88//62 120//62 119//62
f 74//63 75//63 107//63 106//63
f 88//64 89//64 121//64 120//64
f 75//65 76//65 108//65 107//65
f 89//66 90//66 122//66 121//66
f 76//67 77//67 109//67 108//67
f 90//68 91//68 123//68 122//68
f 77//69 78//69 110//69 109//69
f 91//70 92//70 124//70 123//70
f 78//71 79//71 111//71 110//71
f 65//72 66//72 98//72 97//72
f 92//73 93//73 125//73 124//73
f 79//74 80//74 112//74 111//74
f 66//75 67//75 99//75 98//75
f 93//76 94//76 126//76 125//76
usemtl green
f 1//77 2//77 4//77 3//77
f 3//78 4//78 6//78 5//78
f 5//79 6//79 8//79 7//79
f 7//80 8//80 10//80 9//80
f 9//81 10//81 12//81 11//81
f 11//82 12//82 14//82 13//82
f 13//83 14//83 16//83 15//83
f 15//84 16//84 18//84 17//84
f 17//85 18//85 20//85 19//85
f 19//86 20//86 22//86 21//86
f 21//87 22//87 24//87 23//87
f 23//88 24//88 26//88 25//88
f 25//89 26//89 28//89 27//89
f 27//90 28//90 30//90 29//90
f 29//91 30//91 32//91 31//91
f 31//92 32//92 34//92 33//92
f 33//93 34//93 36//93 35//93
f 35//94 36//94 38//94 37//94
f 37//95 38//95 40//95 39//95
f 39//96 40//96 42//96 41//96
f 41//97 42//97 44//97 43//97
f 43//98 44//98 46//98 45//98
f 45//99 46//99 48//99 47//99
f 47//100 48//100 50//100 49//100
f 49//101 50//101 52//101 51//101
f 51//102 52//102 54//102 53//102
f 53//103 54//103 56//103 55//103
f 55//104 56//104 58//104 57//104
f 57//105 58//105 60//105 59//105
f 59//106 60//106 62//106 61//106
f 4//4 2//4 64//4 62//4 60//4 58//4 56//4 54//4 52//4 50//4 48//4 46//4 44//4 42//4 40//4 38//4 36//4 34//4 32//4 30//4 28//4 26//4 24//4 22//4 20//4 18//4 16//4 14//4 12//4 10//4 8//4 6//4
f 61//107 62//107 64//107 63//107
f 63//108 64//108 2//108 1//108
o Low_poly_button_V_Цилиндр.005
v -0.259852 -3.330945 0.758490
v -3.566798 -0.697325 0.758490
v -0.259851 -3.330945 -0.758490
v -3.566798 -0.697325 -0.758490
v 0.520880 -2.013445 0.758490
v -2.621762 0.489324 0.758490
v 0.520880 -2.013445 -0.758490
v -2.621762 0.489324 -0.758490
v -1.577767 -2.281369 0.758490
v -1.577767 -2.281369 -0.758490
v -0.731555 -1.016018 -0.758490
v -0.731556 -1.016018 0.758490
v 3.135442 2.267196 0.758491
v 3.135442 2.267196 -0.758489
v 1.763421 3.114464 -0.758489
v 1.763421 3.114464 0.758491
v 0.000000 3.109182 -1.552802
v 0.000000 3.109182 -0.096538
v 0.606571 3.049440 -1.552802
v 0.606571 3.049440 -0.096538
v 1.189833 2.872510 -1.552802
v 1.189833 2.872510 -0.096538
v 1.727369 2.585191 -1.552802
v 1.727369 2.585191 -0.096538
v 2.198524 2.198524 -1.552802
v 2.198524 2.198524 -0.096538
v 2.585191 1.727369 -1.552803
v 2.585191 1.727369 -0.096538
v 2.872510 1.189833 -1.552803
v 2.872510 1.189833 -0.096538
v 3.049440 0.606572 -1.552803
v 3.049440 0.606571 -0.096538
v 3.109182 0.000000 -1.552803
v 3.109182 0.000000 -0.096538
v 3.049440 -0.606571 -1.552803
v 3.049440 -0.606571 -0.096538
v 2.872510 -1.189832 -1.552803
v 2.872510 -1.189832 -0.096538
v 2.585191 -1.727369 -1.552803
v 2.585191 -1.727369 -0.096538
v 2.198524 -2.198524 -1.552803
v 2.198524 -2.198524 -0.096538
v 1.727369 -2.585191 -1.552803
v 1.727369 -2.585191 -0.096538
v 1.189832 -2.872510 -1.552803
v 1.189832 -2.872510 -0.096538
v 0.606571 -3.049440 -1.552803
v 0.606571 -3.049440 -0.096538
v -0.000001 -3.109182 -1.552803
v -0.000001 -3.109182 -0.096538
v -0.606573 -3.049440 -1.552803
v -0.606573 -3.049440 -0.096538
v -1.189834 -2.872509 -1.552803
v -1.189834 -2.872509 -0.096538
v -1.727371 -2.585190 -1.552803
v -1.727371 -2.585190 -0.096538
v -2.198525 -2.198523 -1.552803
v -2.198525 -2.198523 -0.096538
v -2.585192 -1.727367 -1.552803
v -2.585192 -1.727367 -0.096538
v -2.872511 -1.189830 -1.552803
v -2.872511 -1.189830 -0.096538
v -3.049441 -0.606569 -1.552803
v -3.049441 -0.606569 -0.096538
v -3.109182 0.000003 -1.552803
v -3.109182 0.000003 -0.096538
v -3.049440 0.606575 -1.552803
v -3.049440 0.606575 -0.096538
v -2.872509 1.189836 -1.552803
v -2.872509 1.189836 -0.096538
v -2.585189 1.727372 -1.552803
v -2.585189 1.727372 -0.096538
v -2.198521 2.198527 -1.552802
v -2.198521 2.198527 -0.096538
v -1.727366 2.585193 -1.552802
v -1.727366 2.585193 -0.096538
v -1.189828 2.872512 -1.552802
v -1.189828 2.872512 -0.096538
v -0.606567 3.049441 -1.552802
v -0.606567 3.049441 -0.096538
v -0.000000 3.141838 -1.595308
v 0.612942 3.081468 -1.595308
v 1.202329 2.902680 -1.595308
v 1.745512 2.612343 -1.595308
v 2.221615 2.221615 -1.595308
v 2.612343 1.745511 -1.595308
v 2.902680 1.202329 -1.595308
v 3.081468 0.612942 -1.595308
v 3.141838 0.000000 -1.595308
v 3.081468 -0.612942 -1.595308
v 2.902680 -1.202329 -1.595309
v 2.612343 -1.745511 -1.595309
v 2.221615 -2.221615 -1.595309
v 1.745511 -2.612343 -1.595309
v 1.202329 -2.902680 -1.595309
v 0.612941 -3.081468 -1.595309
v -0.000001 -3.141838 -1.595309
v -0.612943 -3.081468 -1.595309
v -1.202331 -2.902679 -1.595309
v -1.745513 -2.612342 -1.595309
v -2.221616 -2.221613 -1.595309
v -2.612344 -1.745510 -1.595309
v -2.902681 -1.202327 -1.595309
v -3.081469 -0.612939 -1.595308
v -3.141838 0.000003 -1.595308
v -3.081468 0.612945 -1.595308
v -2.902678 1.202333 -1.595308
v -2.612341 1.745515 -1.595308
v -2.221612 2.221617 -1.595308
v -1.745508 2.612345 -1.595308
v -1.202325 2.902682 -1.595308
v -0.612937 3.081469 -1.595308
v -0.000000 3.201600 -1.893834
v 0.624601 3.140082 -1.893834
v 1.225199 2.957893 -1.893834
v 1.778714 2.662033 -1.893834
v 2.263873 2.263873 -1.893834
v 2.662033 1.778713 -1.893834
v 2.957893 1.225199 -1.893834
v 3.140082 0.624601 -1.893834
v 3.201600 0.000000 -1.893834
v 3.140082 -0.624601 -1.893834
v 2.957893 -1.225199 -1.893834
v 2.662033 -1.778713 -1.893834
v 2.263873 -2.263873 -1.893834
v 1.778713 -2.662033 -1.893834
v 1.225199 -2.957893 -1.893834
v 0.624600 -3.140083 -1.893834
v -0.000001 -3.201600 -1.893834
v -0.624602 -3.140082 -1.893834
v -1.225201 -2.957892 -1.893834
v -1.778715 -2.662032 -1.893834
v -2.263875 -2.263872 -1.893834
v -2.662035 -1.778712 -1.893834
v -2.957894 -1.225197 -1.893834
v -3.140083 -0.624598 -1.893834
v -3.201600 0.000003 -1.893834
v -3.140081 0.624605 -1.893834
v -2.957891 1.225203 -1.893834
v -2.662031 1.778717 -1.893834
v -2.263870 2.263876 -1.893834
v -1.778710 2.662035 -1.893834
v -1.225195 2.957895 -1.893834
v -0.624596 3.140083 -1.893834
vn 0.2306 0.7602 0.6074
vn 0.0961 -0.9760 0.1954
vn 0.7006 -0.3745 0.6074
vn -0.5040 -0.6141 0.6074
vn -0.5040 0.6141 0.6074
vn 0.7602 0.2306 0.6074
vn 0.0779 -0.7906 0.6074
vn -0.7906 0.0779 0.6074
vn 0.3745 0.7006 0.6074
vn 0.6141 -0.5040 0.6074
vn -0.6141 -0.5040 0.6074
vn -0.3745 0.7006 0.6074
vn 0.7906 0.0779 0.6074
vn -0.0779 -0.7906 0.6074
vn -0.7602 0.2306 0.6074
vn 0.5040 0.6141 0.6074
vn 0.5040 -0.6141 0.6074
vn -0.7006 -0.3745 0.6074
vn -0.2306 0.7602 0.6074
vn 0.7906 -0.0779 0.6074
vn -0.2306 -0.7602 0.6074
vn -0.7006 0.3745 0.6074
vn 0.6141 0.5040 0.6074
vn 0.3745 -0.7006 0.6074
vn -0.7602 -0.2306 0.6074
vn 0.0779 0.7906 0.6074
vn -0.0779 0.7906 0.6074
vn 0.7602 -0.2306 0.6074
vn -0.3745 -0.7006 0.6074
vn -0.6141 0.5040 0.6074
vn 0.7006 0.3745 0.6074
vn 0.2306 -0.7602 0.6074
vn -0.7906 -0.0779 0.6074
vn -0.0000 0.0000 -1.0000
vn 0.4623 0.8649 0.1954
vn -0.4623 0.8649 0.1954
vn -0.0961 -0.9760 0.1954
vn 0.6222 0.7581 0.1954
vn -0.2847 0.9385 0.1954
vn -0.2847 -0.9385 0.1954
vn 0.7581 0.6222 0.1954
vn -0.0961 0.9760 0.1954
vn -0.4623 -0.8649 0.1954
vn 0.8649 0.4623 0.1954
vn -0.6222 -0.7581 0.1954
vn 0.9385 0.2847 0.1954
vn -0.7581 -0.6222 0.1954
vn 0.9760 0.0961 0.1954
vn -0.8649 -0.4623 0.1954
vn 0.9760 -0.0961 0.1954
vn -0.9385 -0.2847 0.1954
vn 0.9385 -0.2847 0.1954
vn -0.9760 -0.0961 0.1954
vn 0.8649 -0.4623 0.1954
vn -0.9760 0.0961 0.1954
vn 0.7581 -0.6222 0.1954
vn -0.9385 0.2847 0.1954
vn 0.6222 -0.7581 0.1954
vn -0.8649 0.4623 0.1954
vn 0.4623 -0.8649 0.1954
vn 0.0961 0.9760 0.1954
vn -0.7581 0.6222 0.1954
vn 0.2847 -0.9385 0.1954
vn 0.2847 0.9385 0.1954
vn -0.6222 0.7581 0.1954
vn 0.0980 0.9952 0.0000
vn 0.2903 0.9569 0.0000
vn 0.4714 0.8819 0.0000
vn 0.6344 0.7730 0.0000
vn 0.7730 0.6344 0.0000
vn 0.8819 0.4714 0.0000
vn 0.9569 0.2903 0.0000
vn 0.9952 0.0980 0.0000
vn 0.9952 -0.0980 -0.0000
vn 0.9569 -0.2903 0.0000
vn 0.8819 -0.4714 0.0000
vn 0.7730 -0.6344 0.0000
vn 0.6344 -0.7730 0.0000
vn 0.4714 -0.8819 0.0000
vn 0.2903 -0.9569 0.0000
vn 0.0980 -0.9952 0.0000
vn -0.0980 -0.9952 0.0000
vn -0.2903 -0.9569 0.0000
vn -0.4714 -0.8819 0.0000
vn -0.6344 -0.7730 0.0000
vn -0.7730 -0.6344 0.0000
vn -0.8819 -0.4714 0.0000
vn -0.9569 -0.2903 0.0000
vn -0.9952 -0.0980 -0.0000
vn -0.9952 0.0980 0.0000
vn -0.9569 0.2903 0.0000
vn -0.8819 0.4714 0.0000
vn -0.7730 0.6344 0.0000
vn -0.6344 0.7730 0.0000
vn -0.4714 0.8819 0.0000
vn -0.0000 -0.0000 1.0000
vn -0.2903 0.9569 0.0000
vn -0.0980 0.9952 0.0000
vn -0.6230 -0.7822 -0.0000
vn 0.6230 0.7822 0.0000
vn 0.8603 -0.5098 0.0000
vn -0.7822 0.6230 -0.0000
vn 0.5254 0.8508 0.0000
vn -0.8560 0.5170 -0.0000
vn 0.8534 -0.5212 0.0000
usemtl SERIY
s off
f 171//109 173//109 235//109 234//109
f 248//110 249//110 281//110 280//110
f 189//111 191//111 244//111 243//111
f 207//112 209//112 253//112 252//112
f 225//113 227//113 262//113 261//113
f 181//114 183//114 240//114 239//114
f 199//115 201//115 249//115 248//115
f 217//116 219//116 258//116 257//116
f 173//117 175//117 236//117 235//117
f 191//118 193//118 245//118 244//118
f 209//119 211//119 254//119 253//119
f 227//120 229//120 263//120 262//120
f 183//121 185//121 241//121 240//121
f 201//122 203//122 250//122 249//122
f 219//123 221//123 259//123 258//123
f 175//124 177//124 237//124 236//124
f 193//125 195//125 246//125 245//125
f 211//126 213//126 255//126 254//126
f 229//127 231//127 264//127 263//127
f 185//128 187//128 242//128 241//128
f 203//129 205//129 251//129 250//129
f 221//130 223//130 260//130 259//130
f 177//131 179//131 238//131 237//131
f 195//132 197//132 247//132 246//132
f 213//133 215//133 256//133 255//133
f 169//134 171//134 234//134 233//134
f 231//135 169//135 233//135 264//135
f 187//136 189//136 243//136 242//136
f 205//137 207//137 252//137 251//137
f 223//138 225//138 261//138 260//138
f 179//139 181//139 239//139 238//139
f 197//140 199//140 248//140 247//140
f 215//141 217//141 257//141 256//141
f 265//142 266//142 267//142 268//142 269//142 270//142 271//142 272//142 273//142 274//142 275//142 276//142 277//142 278//142 279//142 280//142 281//142 282//142 283//142 284//142 285//142 286//142 287//142 288//142 289//142 290//142 291//142 292//142 293//142 294//142 295//142 296//142
f 235//143 236//143 268//143 267//143
f 262//144 263//144 295//144 294//144
f 249//145 250//145 282//145 281//145
f 236//146 237//146 269//146 268//146
f 263//147 264//147 296//147 295//147
f 250//148 251//148 283//148 282//148
f 237//149 238//149 270//149 269//149
f 264//150 233//150 265//150 296//150
f 251//151 252//151 284//151 283//151
f 238//152 239//152 271//152 270//152
f 252//153 253//153 285//153 284//153
f 239//154 240//154 272//154 271//154
f 253//155 254//155 286//155 285//155
f 240//156 241//156 273//156 272//156
f 254//157 255//157 287//157 286//157
f 241//158 242//158 274//158 273//158
f 255//159 256//159 288//159 287//159
f 242//160 243//160 275//160 274//160
f 256//161 257//161 289//161 288//161
f 243//162 244//162 276//162 275//162
f 257//163 258//163 290//163 289//163
f 244//164 245//164 277//164 276//164
f 258//165 259//165 291//165 290//165
f 245//166 246//166 278//166 277//166
f 259//167 260//167 292//167 291//167
f 246//168 247//168 279//168 278//168
f 233//169 234//169 266//169 265//169
f 260//170 261//170 293//170 292//170
f 247//171 248//171 280//171 279//171
f 234//172 235//172 267//172 266//172
f 261//173 262//173 294//173 293//173
usemtl green
f 169//174 170//174 172//174 171//174
f 171//175 172//175 174//175 173//175
f 173//176 174//176 176//176 175//176
f 175//177 176//177 178//177 177//177
f 177//178 178//178 180//178 179//178
f 179//179 180//179 182//179 181//179
f 181//180 182//180 184//180 183//180
f 183//181 184//181 186//181 185//181
f 185//182 186//182 188//182 187//182
f 187//183 188//183 190//183 189//183
f 189//184 190//184 192//184 191//184
f 191//185 192//185 194//185 193//185
f 193//186 194//186 196//186 195//186
f 195//187 196//187 198//187 197//187
f 197//188 198//188 200//188 199//188
f 199//189 200//189 202//189 201//189
f 201//190 202//190 204//190 203//190
f 203//191 204//191 206//191 205//191
f 205//192 206//192 208//192 207//192
f 207//193 208//193 210//193 209//193
f 209//194 210//194 212//194 211//194
f 211//195 212//195 214//195 213//195
f 213//196 214//196 216//196 215//196
f 215//197 216//197 218//197 217//197
f 217//198 218//198 220//198 219//198
f 219//199 220//199 222//199 221//199
f 221//200 222//200 224//200 223//200
f 223//201 224//201 226//201 225//201
f 225//202 226//202 228//202 227//202
f 227//203 228//203 230//203 229//203
f 172//204 170//204 232//204 230//204 228//204 226//204 224//204 222//204 220//204 218//204 216//204 214//204 212//204 210//204 208//204 206//204 204//204 202//204 200//204 198//204 196//204 194//204 192//204 190//204 188//204 186//204 184//204 182//204 180//204 178//204 176//204 174//204
f 229//205 230//205 232//205 231//205
f 231//206 232//206 170//206 169//206
usemtl wHITE
f 161//207 154//207 156//207 162//207
f 162//142 156//142 160//142 163//142
f 163//208 160//208 158//208 164//208
f 164//204 158//204 154//204 161//204
f 155//209 159//209 157//209 153//209
f 160//210 156//210 154//210 158//210
f 157//204 164//204 161//204 153//204
f 159//142 163//142 167//142 166//142
f 155//142 162//142 163//142 159//142
f 153//207 161//207 162//207 155//207
f 166//211 167//211 168//211 165//211
f 163//212 164//212 168//212 167//212
f 164//204 157//204 165//204 168//204
f 157//213 159//213 166//213 165//213
